<?xml version="1.0" encoding="UTF-8" standalone="no"?>
<!-- Created with Inkscape (http://www.inkscape.org/) -->

<svg
   width="490"
   height="188"
   viewBox="0 0 129.64584 49.741666"
   version="1.1"
   id="svg1"
   inkscape:version="1.4.2 (ebf0e940, 2025-05-08)"
   sodipodi:docname="logo.svg"
   xml:space="preserve"
   xmlns:inkscape="http://www.inkscape.org/namespaces/inkscape"
   xmlns:sodipodi="http://sodipodi.sourceforge.net/DTD/sodipodi-0.dtd"
   xmlns="http://www.w3.org/2000/svg"
   xmlns:svg="http://www.w3.org/2000/svg"><sodipodi:namedview
     id="namedview1"
     pagecolor="#ffffff"
     bordercolor="#000000"
     borderopacity="0.25"
     inkscape:showpageshadow="2"
     inkscape:pageopacity="0.0"
     inkscape:pagecheckerboard="0"
     inkscape:deskcolor="#d1d1d1"
     inkscape:document-units="mm"
     inkscape:zoom="1.3219896"
     inkscape:cx="335.85741"
     inkscape:cy="34.796038"
     inkscape:window-width="1512"
     inkscape:window-height="829"
     inkscape:window-x="0"
     inkscape:window-y="38"
     inkscape:window-maximized="0"
     inkscape:current-layer="svg1"
     showgrid="true"><inkscape:grid
       id="grid13"
       units="mm"
       originx="0"
       originy="0"
       spacingx="0.99999999"
       spacingy="0.99999999"
       empcolor="#0099e5"
       empopacity="0.30196078"
       color="#0099e5"
       opacity="0.14901961"
       empspacing="5"
       enabled="true"
       visible="true" /></sodipodi:namedview><defs
     id="defs1"><rect
       x="618.55011"
       y="365.28549"
       width="0"
       height="355.54453"
       id="rect18" /><inkscape:perspective
       sodipodi:type="inkscape:persp3d"
       inkscape:vp_x="0 : -82.550003 : 1"
       inkscape:vp_y="0 : 1000 : 0"
       inkscape:vp_z="264.58335 : -82.550003 : 1"
       inkscape:persp3d-origin="132.29167 : -126.64721 : 1"
       id="perspective3" /></defs><text
     xml:space="preserve"
     style="font-weight:900;font-size:8.81944px;line-height:20;font-family:'Arial Black';-inkscape-font-specification:'Arial Black,  Heavy';text-align:center;writing-mode:lr-tb;direction:ltr;text-anchor:middle;opacity:0.96;fill:#ffffff;fill-opacity:0.960784;stroke:#df4b2e;stroke-width:0.264583"
     x="64.585136"
     y="74.139153"
     id="text1"><tspan
       sodipodi:role="line"
       id="tspan1"
       style="stroke-width:0.264583"
       x="64.585136"
       y="74.139153" /></text><g
     inkscape:label="DNA"
     inkscape:groupmode="layer"
     id="layer1" /><text
     xml:space="preserve"
     transform="scale(0.26458333)"
     id="text18"
     style="font-style:normal;font-variant:normal;font-weight:bold;font-stretch:normal;font-size:93.3333px;line-height:20;font-family:'Signika Negative';-inkscape-font-specification:'Signika Negative Bold';text-align:center;writing-mode:lr-tb;direction:ltr;white-space:pre;shape-inside:url(#rect18);display:inline;opacity:1;fill:#333333;fill-opacity:1;stroke:#926aea;stroke-opacity:1" /><path
     style="font-weight:bold;font-size:93.3332px;line-height:1.25;font-family:'Signika Negative';-inkscape-font-specification:'Signika Negative Bold';text-align:center;letter-spacing:0px;text-anchor:middle;fill:#333333;stroke-width:0.264583"
     d="m 7.5844903,23.521112 q 1.061861,0 1.605137,0.71615 0.543277,0.71612 0.543277,1.95085 v 9.80369 q -0.814914,0.13581 -1.839732,0.13581 -1.000125,0 -1.852081,-0.13581 v -12.29784 l 0.17286,-0.17285 z m 5.0747027,5.00063 q 0,-1.02484 -0.358071,-1.3829 -0.358068,-0.37042 -0.802566,-0.37042 -0.543277,0 -1.148291,0.40746 -0.5926637,0.40746 -1.0989017,1.01248 -0.493887,0.59267 -0.728483,1.19766 v -3.2226 q 0.580319,-0.6791 1.271762,-1.29645 0.7037887,-0.61738 1.5063577,-1.01248 0.802568,-0.39511 1.67922,-0.39511 1.074206,0 1.827385,0.50623 0.753181,0.50623 1.135943,1.3829 0.39511,0.87664 0.39511,2.00022 v 8.64307 q -0.79022,0.13581 -1.839732,0.13581 -0.987777,0 -1.839733,-0.13581 z m 6.6181,-0.0246 q 0,-1.02481 -0.382762,-1.37052 -0.370417,-0.35808 -0.814917,-0.35808 -0.493887,0 -1.086554,0.40745 -0.592664,0.40746 -1.111247,1.03717 -0.518583,0.62971 -0.827262,1.29646 v -3.46956 q 0.555622,-0.66675 1.308804,-1.25942 0.753178,-0.59266 1.605134,-0.95072 0.864307,-0.37042 1.716262,-0.37042 1.086554,0 1.815039,0.51858 0.728485,0.51859 1.098902,1.40759 0.370417,0.87664 0.370417,2.00022 v 5.58096 q 0,0.71612 0.12347,1.34583 0.135821,0.61735 0.456848,1.08656 -0.407458,0.33338 -1.01247,0.55563 -0.592667,0.22225 -1.28411,0.22225 -1.098902,0 -1.543402,-0.58034 -0.432152,-0.59266 -0.432152,-1.69156 z m 10.927257,7.49477 q -0.814917,0.13581 -1.839733,0.13581 -1.000125,0 -1.839735,-0.13581 v -8.29733 q 0,-0.61735 -0.259291,-1.01246 -0.246944,-0.39513 -0.901346,-0.39513 h -0.34572 q -0.160515,-0.60499 -0.160515,-1.24706 0,-0.30869 0.03704,-0.65439 0.03704,-0.35809 0.123473,-0.67911 0.543277,-0.0617 1.111247,-0.0864 0.580319,-0.0371 0.963084,-0.0371 h 0.51858 q 1.185334,0 1.889123,0.77788 0.703791,0.76554 0.703791,2.07433 z m -4.432647,-15.75504 q 0,-0.74083 0.283986,-1.38289 0.308681,-0.1605 0.79022,-0.27163 0.49389,-0.11112 0.975432,-0.11112 0.469193,0 0.975428,0.11112 0.518581,0.11113 0.790221,0.27163 0.135818,0.30869 0.209902,0.69146 0.07408,0.37041 0.07408,0.69143 0,0.72848 -0.283986,1.39523 -0.271639,0.16052 -0.79022,0.27165 -0.506235,0.0988 -0.975429,0.0988 -0.481541,0 -0.987777,-0.0988 -0.506235,-0.11113 -0.777875,-0.27165 -0.283985,-0.66675 -0.283985,-1.39523 z m 19.829616,4.07459 q 0,1.18533 -0.45685,2.09902 -0.44449,0.91368 -1.14828,1.53103 -0.69145,0.60503 -1.43228,0.889 0.69144,0.23461 1.14829,0.83963 0.45685,0.605 0.74083,1.40759 l 0.79022,2.19778 q 0.20991,0.60503 0.50624,1.06186 0.30868,0.4445 0.69144,0.75319 -0.34572,0.48154 -1.04951,0.80256 -0.70379,0.30869 -1.44462,0.30869 -1.02482,0 -1.49402,-0.54327 -0.45684,-0.55563 -0.8396,-1.64219 l -0.93839,-2.67933 q -0.22225,-0.66675 -0.6791,-1.13596 -0.4445,-0.48155 -1.45697,-0.48155 h -2.69169 v -2.82749 q 0.481541,-0.0246 1.18533,-0.0494 0.71614,-0.0246 1.35819,-0.037 0.64206,-0.0246 0.93839,-0.0246 0.97543,0 1.49401,-0.34573 0.53093,-0.35806 0.72849,-0.92604 0.19755,-0.56796 0.19755,-1.19766 0,-0.66675 -0.19755,-1.22238 -0.19756,-0.55562 -0.72849,-0.889 -0.51858,-0.34573 -1.49401,-0.34573 -0.25929,0 -0.58031,0 -0.32103,0 -0.66675,0 -0.34573,-0.0124 -0.7038,-0.0246 v 14.16225 q -0.46919,0.0864 -0.97543,0.11113 -0.506231,0.0246 -0.901341,0.0246 -0.345723,0 -0.876652,-0.0246 -0.530928,-0.0246 -0.987777,-0.11113 v -16.74281 l 0.172863,-0.16052 q 1.555748,-0.037 3.000367,-0.0617 1.44463,-0.037 2.82751,-0.037 1.71626,0 3.06211,0.56796 1.34585,0.55562 2.12372,1.74095 0.77787,1.17298 0.77787,3.01274 z m 12.59417,8.12445 q 0,0.60502 0.18521,1.11125 0.18521,0.50623 0.50624,0.75316 -0.11113,0.4939 -0.45685,1.06188 -0.33337,0.55563 -0.69144,0.82725 -1.5681,-0.0617 -2.35832,-1.11125 -0.77787,-1.0495 -0.77787,-2.54352 v -14.54499 l 0.17286,-0.17288 h 1.41993 q 1.0989,0 1.5434,0.50625 0.45684,0.49387 0.45684,1.72861 z m -10.86554,-2.44475 q 0,-2.13606 0.66675,-3.59304 0.6791,-1.45695 1.80269,-2.19779 1.1236,-0.75319 2.4571,-0.75319 1.27176,0 2.25954,0.53094 0.98777,0.51859 1.81504,1.03717 l -0.56798,2.62993 q -0.71613,-0.58031 -1.48166,-1.01245 -0.75318,-0.43215 -1.39523,-0.43215 -0.60502,0 -1.01247,0.45683 -0.39511,0.45686 -0.59267,1.30882 -0.18521,0.85195 -0.18521,2.03729 0,1.18533 0.2099,1.93849 0.20991,0.74084 0.56798,1.09892 0.37041,0.34571 0.81491,0.34571 0.41981,0 0.96308,-0.24694 0.54328,-0.24693 1.04951,-0.92604 0.51859,-0.6791 0.85196,-1.96321 l 0.81492,2.14842 q -0.12347,0.97541 -0.77788,1.88912 -0.64205,0.90133 -1.64217,1.48167 -0.98778,0.58031 -2.19781,0.58031 -1.49401,0 -2.48178,-0.80256 -0.97543,-0.81492 -1.45697,-2.24718 -0.48155,-1.44463 -0.48155,-3.30907 z m 15.58218,1.03717 v -2.54352 h 4.85246 v -0.284 q 0,-0.61736 -0.17287,-1.12358 -0.17286,-0.50623 -0.55562,-0.81492 -0.38276,-0.30869 -1.01247,-0.30869 -0.95073,0 -1.35819,0.79023 -0.39511,0.77788 -0.39511,2.35831 v 1.11125 q 0,0.889 0.16051,1.64219 0.16051,0.75316 0.6544,1.22238 0.50624,0.45683 1.51871,0.45683 0.83961,0 1.65452,-0.22225 0.82727,-0.23458 1.58045,-0.55563 0.40746,0.40746 0.6544,1.02481 0.24693,0.61738 0.33337,1.16065 -0.92604,0.6791 -2.22249,1.04952 -1.28411,0.35806 -2.59292,0.35806 -1.60513,0 -2.66699,-0.53094 -1.04952,-0.54327 -1.66688,-1.45695 -0.60501,-0.91371 -0.8643,-2.06198 -0.24694,-1.14829 -0.24694,-2.38302 0,-1.86444 0.56797,-3.34608 0.56797,-1.49402 1.76565,-2.37067 1.21002,-0.87667 3.13619,-0.87667 1.62983,0 2.76577,0.69146 1.1483,0.69144 1.75329,1.87677 0.60503,1.18534 0.60503,2.67933 0,0.79023 -0.0741,1.32117 -0.0617,0.53092 -0.23461,1.13594 z"
     id="text20792-6-9-7-9-6-3-3-19"
     inkscape:label="EA_name"
     aria-label="miRde" /><path
     style="font-weight:bold;font-size:93.3332px;line-height:1.25;font-family:'Signika Negative';-inkscape-font-specification:'Signika Negative Bold';text-align:center;letter-spacing:0px;text-anchor:middle;fill:#333333;stroke-width:0.264583"
     d="m 92.817437,31.082582 q -0.0988,-0.37041 -0.13581,-0.79023 -0.0246,-0.43214 -0.0246,-0.69143 0,-0.25929 0.0246,-0.67911 0.037,-0.43214 0.13581,-0.80256 h 6.82799 q 0.0988,0.37042 0.12348,0.80256 0.037,0.41982 0.037,0.67911 0,0.25929 -0.037,0.69143 -0.0246,0.41982 -0.12348,0.79023 z m 11.112473,-7.30953 q 1.06185,0 1.59279,0.71612 0.53091,0.71615 0.53091,1.95085 v 9.80369 q -0.81489,0.13581 -1.83973,0.13581 -1.00012,0 -1.85208,-0.13581 v -12.29781 l 0.17288,-0.17285 z m 8.92699,9.44559 q 0,0.71615 0.13584,1.34586 0.13581,0.61735 0.45683,1.08654 -0.40746,0.33337 -1.01245,0.55562 -0.59267,0.22225 -1.28409,0.22225 -1.11125,0 -1.54342,-0.58031 -0.43214,-0.59266 -0.43214,-1.69156 v -5.40808 q 0,-0.889 -0.23461,-1.30882 -0.23458,-0.41978 -0.889,-0.41978 -0.40746,0 -0.95073,0.22225 -0.53093,0.20989 -1.04952,0.69143 -0.50623,0.46919 -0.88897,1.24706 v -3.24731 q 0.86429,-0.86431 1.90145,-1.54339 1.04953,-0.67911 2.35831,-0.67911 1.13596,0 1.90147,0.56798 0.76552,0.55563 1.14829,1.53104 0.38274,0.97544 0.38274,2.24721 z m 5.46981,-9.26039 4.81539,-0.0494 q 0.0741,0.30866 0.0988,0.64203 0.037,0.33338 0.037,0.65443 0,0.30866 -0.037,0.66675 -0.0246,0.3457 -0.0988,0.66675 l -4.85243,-0.0741 -3.87702,0.0741 q -0.13583,-0.65443 -0.13583,-1.3335 0,-0.64207 0.13583,-1.29646 z m -1.79035,1.51869 q -0.0741,-0.82725 -0.19754,-1.62981 -0.11112,-0.80259 -0.11112,-1.62983 0,-1.21005 0.53091,-2.17313 0.53094,-0.96309 1.48167,-1.51871 0.95072,-0.5556 2.2225,-0.5556 1.11125,0 2.08668,0.22222 0.98777,0.20992 1.61748,0.4445 0.0124,0.62971 -0.22225,1.34586 -0.22225,0.70379 -0.58034,1.08656 -0.38274,-0.0988 -0.91368,-0.20992 -0.51858,-0.12345 -1.02481,-0.12345 -0.79023,0 -1.23473,0.4445 -0.4445,0.43214 -0.4445,1.29646 0,0.69143 0.14816,1.50635 0.14817,0.80256 0.23461,1.51871 v 10.74206 q -0.87664,0.13581 -1.81504,0.13581 -0.889,0 -1.778,-0.13581 z"
     id="text20792-6-9-7-9-6-3-3-0"
     inkscape:label="EA_name"
     aria-label="-nf" /><path
     style="fill:#a324b0;fill-opacity:1;stroke:#a324b0;stroke-width:0.264583;stroke-opacity:1"
     d="m 76.344459,16.497882 c 1.2864,0.0549 4.75125,0.0513 6.06626,0.13136 1.36612,0.0838 1.23087,1.65376 0.0474,1.71538 -1.54593,0.0806 -6.39646,0.0151 -7.21222,0.0206 0,0 0.78729,-1.88065 1.09857,-1.86737 z"
     id="path17-1-4"
     sodipodi:nodetypes="ssscs"
     inkscape:label="link4" /><path
     style="fill:#a324b0;fill-opacity:1;stroke:#a324b0;stroke-width:0.264583;stroke-opacity:1"
     d="m 86.308559,21.923872 c -0.98959,-0.0336 -3.65392,-0.006 -4.66569,-0.0591 -1.05111,-0.0557 -0.95856,-1.28352 -0.049,-1.34017 1.18817,-0.0741 4.91853,-0.0576 5.54578,-0.0678 0,0 -0.59169,1.47529 -0.83114,1.46717 z"
     id="path17-1"
     sodipodi:nodetypes="ssscs"
     inkscape:label="link3" /><path
     style="fill:#a324b0;fill-opacity:1;stroke:#a324b0;stroke-width:0.264583;stroke-opacity:1"
     d="m 89.084599,34.494392 h -12.04169 v 1.39234 h 12.11402 z"
     id="path16"
     inkscape:label="link1" /><path
     style="fill:#a324b0;fill-opacity:1;stroke:#a324b0;stroke-width:0.264583;stroke-opacity:1"
     d="m 78.773569,30.730822 c 0.98939,0.0387 3.65382,0.0241 4.66532,0.0828 1.05079,0.061 0.95202,1.28833 0.0422,1.34037 -1.18853,0.068 -4.91876,0.0327 -5.54606,0.0397 0,0 0.59917,-1.4723 0.83857,-1.46293 z"
     id="path17"
     sodipodi:nodetypes="ssscs"
     inkscape:label="link2" /><path
     style="fill:#a324b0;fill-opacity:1;stroke:#a324b0;stroke-width:0.264583;stroke-opacity:1"
     d="m 78.029879,28.779152 c 2.6103,-3.13489 4.55258,-4.22077 6.92756,-6.48303 2.58805,-2.46526 3.80286,-5.8361 4.24704,-7.97722 0.19846,-0.95668 2.708218,-0.72739 2.695388,0.74983 -0.0389,4.45823 -5.228328,9.25356 -8.487298,12.0473 -2.46904,2.11659 -3.618,3.21559 -4.92316,6.1341 -1.16856,2.61303 -1.01473,4.26299 -1.54964,5.83316 -0.48895,1.43531 -2.0965,0.79976 -2.50222,0.21069 -0.67061,-0.97369 0.258,-3.88723 0.57759,-4.88114 0.7167,-2.22866 0.95888,-3.16465 3.01474,-5.63369 z"
     id="path13"
     sodipodi:nodetypes="ssssssssss"
     inkscape:label="Hebra1" /><path
     style="fill:#a324b0;fill-opacity:1;stroke:#a324b0;stroke-width:0.264583;stroke-opacity:1"
     d="m 89.489439,31.743092 c -1.07096,-2.03652 -2.45851,-3.83998 -5.01068,-6.11098 -1.26069,-1.12178 -2.54649,-2.15487 -3.74888,-3.31774 -1.95829,-1.89396 -3.53542,-4.27336 -3.90867,-5.5254 -0.47183,-1.58258 -0.34602,-3.36137 -0.61198,-4.29347 -0.23828,-0.83513 -2.1123,-0.57388 -2.36511,-0.16936 -0.30244,0.484 -0.28263,1.24288 -0.25228,2.05147 0.0301,0.79992 0.0489,1.72043 0.37002,2.68587 0.60852,1.82962 1.70868,3.8195 3.1831,5.4883 1.77937,2.01404 3.99319,3.54343 6.33404,5.77977 1.66886,1.59438 3.10843,3.38117 4.02225,5.5109 0.65961,1.53723 0.37158,3.3355 0.73067,6.40279 0.17013,1.45338 2.579738,1.09834 2.637788,-0.27948 0.0489,-1.16083 -0.003,-3.08147 -0.23468,-4.88739 -0.19325,-1.50219 -0.861618,-2.79524 -1.145618,-3.33528 z"
     id="path14"
     sodipodi:nodetypes="ssssssssssssssss"
     inkscape:label="Hebra2" /><path
     id="path18"
     style="fill:#a324b0;fill-opacity:1;stroke:#a324b0;stroke-width:0.264583;stroke-opacity:1"
     d="m 94.588247,7.5676816 a 2.3677084,2.3677086 0 0 1 -2.36773,2.36771 2.3677084,2.3677086 0 0 1 -2.367708,-2.36771 2.3677084,2.3677086 0 0 1 2.367708,-2.3677 2.3677084,2.3677086 0 0 1 2.36773,2.3677 z" /><path
     id="path18-3"
     style="fill:#a324b0;fill-opacity:1;stroke:#a324b0;stroke-width:0.264583;stroke-opacity:1"
     inkscape:transform-center-x="-9.5968309"
     inkscape:transform-center-y="-24.687018"
     d="m 73.539159,41.970002 a 1.3677086,1.3677086 0 0 1 -1.36771,1.36771 1.3677086,1.3677086 0 0 1 -1.36771,-1.36771 1.3677086,1.3677086 0 0 1 1.36771,-1.36771 1.3677086,1.3677086 0 0 1 1.36771,1.36771 z" /></svg>
